<svg width="28" height="28" viewBox="0 0 28 28" fill="none" xmlns="http://www.w3.org/2000/svg">
<path d="M19 9.5H22.75V21.375C22.75 22.2344 22.4375 22.9635 21.8125 23.5625C21.2135 24.1875 20.4844 24.5 19.625 24.5H8.375C7.51562 24.5 6.77344 24.1875 6.14844 23.5625C5.54948 22.9635 5.25 22.2344 5.25 21.375V9.5H9C9 8.11979 9.48177 6.94792 10.4453 5.98438C11.4349 4.99479 12.6198 4.5 14 4.5C15.3802 4.5 16.5521 4.99479 17.5156 5.98438C18.5052 6.94792 19 8.11979 19 9.5ZM16.1875 7.3125C15.5885 6.6875 14.8594 6.375 14 6.375C13.1406 6.375 12.3984 6.6875 11.7734 7.3125C11.1745 7.91146 10.875 8.64062 10.875 9.5H17.125C17.125 8.64062 16.8125 7.91146 16.1875 7.3125ZM20.875 21.375V11.375H19V12.9375C19 13.1979 18.9089 13.4193 18.7266 13.6016C18.5443 13.7839 18.3229 13.875 18.0625 13.875C17.8021 13.875 17.5807 13.7839 17.3984 13.6016C17.2161 13.4193 17.125 13.1979 17.125 12.9375V11.375H10.875V12.9375C10.875 13.1979 10.7839 13.4193 10.6016 13.6016C10.4193 13.7839 10.1979 13.875 9.9375 13.875C9.67708 13.875 9.45573 13.7839 9.27344 13.6016C9.09115 13.4193 9 13.1979 9 12.9375V11.375H7.125V21.375C7.125 21.7135 7.24219 22 7.47656 22.2344C7.73698 22.4948 8.03646 22.625 8.375 22.625H19.625C19.9635 22.625 20.25 22.4948 20.4844 22.2344C20.7448 22 20.875 21.7135 20.875 21.375Z" fill="#111111"/>
</svg>
